<svg xmlns="http://www.w3.org/2000/svg" width="1000" height="1000" viewBox="0 0 1000 1000"><path fill="#000" d="M493.5 96.85L545.52 103.35L591.03 127.19L625.71 161.87L653.89 205.22L688.57 283.25L712.41 354.78L768.77 558.52L805.62 664.73L859.8 770.94L927 851.13L933.5 864.14L931.33 887.98L911.82 898.82L874.98 894.48L848.97 879.31L799.11 838.13L744.93 775.27L647.39 614.88L625.71 586.7L593.2 556.35L543.35 532.51L519.51 528.18L480.49 528.18L456.65 532.51L424.14 545.52L378.62 582.36L341.77 632.22L261.58 766.6L233.4 803.45L192.22 846.8L142.36 885.81L125.02 894.48L90.34 900.99L66.5 890.15L64.33 868.47L68.67 857.64L118.52 801.28L148.87 757.93L196.55 660.39L235.57 545.52L294.09 335.27L326.6 246.4L350.44 198.72L378.62 157.54L415.47 122.86L463.15 101.18L491.33 99.01Z"/></svg>